<?xml version="1.0" standalone="no"?>
<!DOCTYPE svg PUBLIC "-//W3C//DTD SVG 20010904//EN"
 "http://www.w3.org/TR/2001/REC-SVG-20010904/DTD/svg10.dtd">
<svg version="1.0" xmlns="http://www.w3.org/2000/svg"
 width="500.000000pt" height="500.000000pt" viewBox="0 0 500.000000 500.000000"
 preserveAspectRatio="xMidYMid meet">

<g transform="translate(0.000000,500.000000) scale(0.100000,-0.100000)"
fill="#000000" stroke="none">
<path d="M1855 4763 c-82 -25 -152 -47 -154 -49 -4 -3 48 -189 101 -362 21
-69 21 -69 92 -42 25 9 25 9 10 57 -8 26 -17 62 -20 78 l-6 30 89 24 c48 13
91 27 95 30 13 11 -12 83 -26 78 -8 -3 -47 -15 -87 -27 -41 -11 -79 -23 -86
-25 -10 -3 -50 102 -41 110 2 1 48 15 103 30 55 16 103 31 107 34 9 8 -10 81
-20 80 -4 -1 -74 -22 -157 -46z"/>
<path d="M2285 4735 c-16 -9 -36 -23 -42 -32 -12 -15 -13 -14 -13 6 0 22 -3
23 -47 17 -25 -3 -47 -7 -49 -9 -1 -1 6 -69 17 -152 10 -82 19 -158 19 -168 0
-16 6 -17 48 -11 26 3 48 8 50 9 1 1 -2 44 -8 95 -9 69 -9 99 0 120 11 27 46
50 75 50 16 0 19 28 9 68 -7 26 -18 27 -59 7z"/>
<path d="M2495 4736 c-45 -19 -92 -78 -100 -124 -21 -124 84 -226 214 -208
146 20 208 175 114 287 -15 17 -42 38 -60 45 -41 18 -129 17 -168 0z m144 -90
c70 -75 -5 -198 -96 -154 -84 40 -56 178 37 178 25 0 43 -7 59 -24z"/>
<path d="M2827 4568 c-21 -84 -37 -158 -37 -164 0 -11 80 -37 88 -30 1 2 14
45 28 97 13 51 30 99 36 106 23 28 48 35 84 23 53 -18 57 -42 28 -161 -13 -56
-23 -103 -22 -104 10 -9 84 -23 89 -17 15 17 61 233 54 259 -20 82 -106 125
-198 100 -23 -6 -28 -5 -25 10 2 11 -6 19 -22 24 -65 18 -63 21 -103 -143z"/>
<path d="M3337 4625 c-14 -30 -21 -34 -41 -29 -20 5 -27 0 -40 -25 -16 -29
-15 -31 8 -43 l25 -13 -35 -79 c-37 -87 -42 -130 -18 -164 31 -44 144 -83 144
-49 0 6 3 21 6 32 4 16 -2 23 -25 32 -17 6 -34 19 -37 28 -6 16 41 140 57 150
4 3 23 -1 42 -9 34 -14 34 -14 51 21 l16 34 -37 16 c-49 20 -47 16 -29 52 22
42 21 45 -21 61 -21 8 -41 16 -44 18 -3 1 -13 -14 -22 -33z"/>
<path d="M3732 4238 l-142 -170 132 -110 132 -110 23 27 c13 14 23 30 23 34 0
4 -40 42 -89 83 l-89 75 33 39 32 38 72 -58 c39 -32 74 -63 78 -69 3 -6 18 5
33 23 l27 33 -71 61 c-40 34 -74 65 -76 70 -1 5 9 24 24 42 l27 34 75 -62
c106 -89 99 -86 129 -58 14 13 25 26 25 30 0 5 -179 160 -240 207 -13 9 -39
-17 -158 -159z"/>
<path d="M3486 4346 c-9 -14 -16 -30 -16 -35 0 -6 32 -29 71 -52 l72 -43 18
23 c11 13 19 29 19 35 0 9 -102 78 -141 94 -3 1 -14 -9 -23 -22z"/>
<path d="M1126 4280 c-14 -17 -26 -40 -26 -51 0 -20 -15 -26 -25 -9 -6 10 -75
-36 -75 -50 0 -5 48 -65 106 -135 l105 -126 30 22 c17 12 33 28 36 35 3 8 -17
40 -44 71 -82 95 -92 134 -47 180 l25 25 -23 27 c-12 14 -26 30 -29 34 -3 5
-18 -6 -33 -23z"/>
<path d="M1507 4262 c-22 -24 -21 -65 1 -85 40 -36 102 -9 102 45 0 51 -69 78
-103 40z"/>
<path d="M870 4028 c-101 -52 -139 -162 -87 -250 45 -77 139 -108 220 -75 36
16 103 85 117 123 6 14 10 36 10 50 0 21 -4 24 -40 24 -36 0 -40 -2 -40 -26 0
-41 -59 -94 -104 -94 -20 0 -36 3 -36 7 0 5 50 65 143 170 17 19 18 25 6 39
-18 23 -87 54 -119 54 -14 0 -46 -10 -70 -22z m93 -74 c7 -7 -91 -124 -104
-124 -5 0 -11 11 -15 25 -7 30 12 81 35 95 18 11 74 13 84 4z"/>
<path d="M4010 3929 c-69 -55 -126 -104 -128 -107 -1 -4 11 -23 27 -42 l28
-34 83 62 c71 53 89 63 118 60 24 -2 41 -11 55 -30 36 -48 19 -72 -131 -188
l-33 -26 33 -38 33 -38 86 69 c112 88 133 119 127 178 -7 56 -46 109 -93 126
-26 10 -32 16 -24 25 8 10 3 23 -16 49 -15 19 -30 35 -34 34 -3 0 -62 -45
-131 -100z"/>
<path d="M632 3709 c-51 -25 -92 -89 -92 -141 0 -27 -4 -35 -17 -34 -19 1 -60
-61 -47 -74 13 -12 382 -220 391 -220 4 0 18 18 29 40 l22 39 -22 14 c-11 8
-41 24 -65 37 l-44 22 32 25 c103 81 89 224 -28 285 -64 34 -102 35 -159 7z
m134 -113 c43 -43 44 -77 5 -117 -34 -33 -69 -37 -111 -12 -56 32 -65 90 -21
134 41 41 83 39 127 -5z"/>
<path d="M4298 3620 c-82 -25 -138 -92 -138 -166 0 -52 33 -116 71 -138 27
-16 29 -20 15 -28 -14 -8 -14 -12 4 -48 11 -22 23 -40 25 -40 6 0 408 200 414
206 7 6 -31 84 -41 84 -5 0 -35 -13 -68 -30 -33 -16 -62 -30 -65 -30 -3 0 -5
13 -5 29 0 68 -56 143 -120 161 -40 11 -55 11 -92 0z m105 -110 c68 -54 24
-160 -67 -160 -38 0 -55 10 -71 41 -28 54 -15 95 41 124 39 20 66 19 97 -5z"/>
<path d="M450 3309 c-70 -40 -113 -145 -91 -219 59 -198 323 -161 348 49 16
138 -137 240 -257 170z m146 -103 c57 -49 22 -146 -53 -146 -90 0 -134 77 -82
144 28 36 95 37 135 2z"/>
<path d="M4563 3025 c-117 -17 -215 -33 -217 -36 -7 -6 20 -192 35 -243 45
-159 235 -219 356 -113 73 64 87 140 58 326 -7 51 -15 94 -17 95 -2 2 -98 -11
-215 -29z m151 -102 c13 -48 16 -121 6 -148 -37 -99 -167 -124 -233 -45 -24
28 -56 155 -42 169 6 6 196 37 242 40 13 0 24 -6 27 -16z"/>
<path d="M166 2909 c-4 -23 -4 -44 -2 -47 10 -9 451 -81 457 -74 10 11 20 92
12 92 -5 0 -100 16 -213 35 -113 19 -215 35 -226 35 -17 0 -23 -8 -28 -41z"/>
<path d="M379 2740 c-75 -22 -119 -85 -119 -171 0 -98 59 -168 149 -177 64 -6
113 12 150 53 52 60 65 148 32 221 -25 54 -31 57 -64 28 -27 -23 -27 -25 -12
-53 8 -17 15 -42 15 -56 0 -45 -35 -95 -66 -95 -2 0 -4 59 -4 130 l0 130 -27
-1 c-16 0 -40 -4 -54 -9z m21 -170 c0 -63 -3 -80 -14 -80 -22 0 -56 49 -56 80
0 31 34 80 56 80 11 0 14 -17 14 -80z"/>
<path d="M4497 2526 c-50 -18 -72 -39 -98 -93 -26 -53 -24 -154 4 -197 l18
-26 30 22 c20 15 27 27 23 38 -4 8 -9 34 -12 58 -4 47 13 83 49 103 21 11 21
11 14 -103 -3 -62 -9 -121 -12 -132 -5 -17 0 -18 56 -14 74 5 107 26 139 89
76 145 -61 310 -211 255z m138 -116 c27 -30 24 -84 -5 -115 -47 -50 -57 -31
-44 83 7 56 20 64 49 32z"/>
<path d="M265 2309 c4 -24 10 -47 14 -50 3 -4 51 -16 106 -29 55 -12 106 -26
114 -30 9 -5 -18 -26 -85 -67 l-99 -60 1 -46 c0 -26 3 -49 6 -52 3 -3 72 36
154 88 134 83 149 96 152 123 7 70 -1 76 -174 117 -88 22 -167 41 -178 44 -16
5 -17 1 -11 -38z"/>
<path d="M4498 2096 c-81 -11 -151 -25 -156 -31 -5 -5 -14 -28 -19 -50 l-10
-40 146 -114 146 -113 12 43 c8 26 9 46 4 53 -6 6 -48 40 -95 76 -47 36 -86
68 -86 71 0 3 54 12 120 19 l120 13 10 36 c20 71 31 69 -192 37z"/>
<path d="M595 1969 c-16 -29 -15 -31 8 -53 36 -33 52 -88 35 -122 -7 -15 -18
-29 -24 -31 -6 -2 -28 46 -51 109 -24 68 -46 114 -54 116 -22 4 -80 -38 -106
-77 -46 -68 -20 -194 50 -243 47 -33 139 -36 192 -6 82 47 106 158 56 256 -19
38 -63 82 -82 82 -5 0 -16 -14 -24 -31z m-77 -141 c35 -95 35 -98 13 -98 -10
0 -27 3 -36 6 -18 7 -45 55 -45 81 0 21 27 63 40 63 5 0 17 -24 28 -52z"/>
<path d="M4283 1779 c-62 -31 -113 -113 -113 -184 0 -57 6 -64 46 -52 30 9 34
14 34 46 0 20 9 50 19 67 18 30 75 63 88 51 3 -4 -15 -53 -42 -109 -26 -57
-49 -108 -52 -115 -13 -34 113 -56 165 -29 135 70 140 262 10 325 -56 26 -102
27 -155 0z m162 -130 c13 -25 14 -37 5 -65 -6 -19 -20 -39 -30 -44 -20 -10
-70 -14 -70 -5 0 10 70 145 75 145 2 0 12 -14 20 -31z"/>
<path d="M623 1602 c-112 -45 -169 -164 -131 -273 10 -31 95 -175 130 -222 13
-18 24 -12 184 88 93 59 177 113 186 119 15 11 10 23 -51 117 -37 57 -85 119
-107 137 -64 53 -135 65 -211 34z m155 -102 c28 -17 110 -126 100 -135 -1 -1
-52 -35 -113 -74 l-110 -71 -21 26 c-85 104 -80 204 14 253 48 26 89 26 130 1z"/>
<path d="M4073 1465 c-13 -19 -23 -37 -23 -40 0 -2 87 -63 194 -134 l194 -130
27 40 c14 23 25 42 23 44 -15 12 -372 247 -381 251 -7 2 -22 -12 -34 -31z"/>
<path d="M3980 1304 c-128 -56 -169 -204 -82 -298 75 -79 186 -75 264 12 86
95 65 228 -44 281 -52 25 -90 26 -138 5z m112 -111 c35 -33 42 -66 23 -103
-31 -60 -90 -67 -141 -16 -52 52 -44 114 19 141 38 17 63 11 99 -22z"/>
<path d="M3654 1168 c-16 -12 -33 -25 -38 -29 -4 -4 11 -32 34 -63 24 -31 41
-58 39 -59 -2 -2 -25 -11 -51 -21 -117 -43 -149 -170 -66 -270 54 -66 134 -84
208 -46 41 21 80 67 80 96 0 14 3 15 12 6 17 -17 29 -15 62 12 l29 24 -137
186 c-76 102 -139 186 -140 186 -2 0 -16 -10 -32 -22z m89 -239 c79 -40 75
-154 -6 -174 -34 -9 -75 11 -97 47 -28 45 -25 74 9 109 31 31 59 36 94 18z"/>
<path d="M1093 1101 c-47 -22 -99 -87 -109 -136 -14 -76 52 -177 126 -192 17
-3 30 -8 30 -11 0 -3 -21 -29 -46 -59 l-47 -54 29 -30 c15 -16 33 -29 40 -29
10 0 273 307 297 347 5 7 -7 22 -28 39 -29 22 -38 24 -50 14 -12 -10 -15 -9
-15 8 0 48 -97 122 -160 122 -14 0 -44 -9 -67 -19z m142 -106 c55 -54 9 -155
-69 -155 -81 0 -114 88 -57 149 38 40 90 43 126 6z"/>
<path d="M1445 848 c10 -46 12 -48 49 -48 18 0 48 -10 66 -22 33 -23 59 -72
45 -86 -4 -4 -56 19 -115 51 -60 31 -111 57 -115 57 -12 0 -35 -71 -35 -110 0
-131 158 -214 276 -145 48 28 84 91 84 147 0 95 -103 188 -208 188 l-54 0 7
-32z m124 -214 c13 -11 -27 -34 -58 -34 -51 0 -100 55 -85 94 5 12 20 7 72
-21 37 -20 69 -38 71 -39z"/>
<path d="M3320 811 c-46 -14 -87 -40 -114 -71 -34 -41 -33 -56 6 -69 29 -10
34 -9 52 13 12 13 31 29 43 35 30 15 85 14 107 -2 16 -12 6 -19 -98 -67 -64
-30 -116 -59 -116 -66 0 -27 49 -81 93 -103 45 -22 52 -23 103 -12 98 22 167
116 150 204 -19 101 -128 168 -226 138z m140 -187 c0 -31 -50 -84 -80 -84 -23
0 -85 29 -77 36 7 7 140 72 150 73 4 1 7 -11 7 -25z"/>
<path d="M3058 706 c-20 -6 -39 -14 -43 -18 -4 -3 3 -40 14 -80 28 -98 27
-139 -2 -166 -13 -12 -31 -22 -40 -22 -20 0 -21 -15 -6 -59 14 -39 29 -39 72
-1 39 34 47 36 47 16 0 -12 7 -12 38 -4 20 5 41 13 45 18 8 7 -65 288 -82 316
-4 7 -17 7 -43 0z"/>
<path d="M1756 516 c-64 -107 -116 -197 -116 -200 0 -8 79 -28 89 -22 5 3 43
64 86 136 43 72 80 128 83 126 4 -5 31 -252 32 -297 0 -10 15 -19 45 -26 53
-12 42 -23 151 157 l69 115 15 -165 15 -165 48 -9 c26 -4 49 -7 51 -5 2 2 -6
105 -18 229 l-21 225 -35 12 c-70 24 -71 23 -155 -117 -43 -71 -80 -129 -81
-127 -2 2 -8 57 -14 122 -17 191 -14 181 -65 194 -24 6 -48 11 -53 11 -5 0
-62 -87 -126 -194z"/>
<path d="M2615 606 c-22 -33 -13 -73 20 -88 57 -26 109 25 83 80 -10 21 -22
28 -50 30 -30 3 -40 -1 -53 -22z"/>
</g>
</svg>
