<?xml version="1.0" standalone="no"?>
<!DOCTYPE svg PUBLIC "-//W3C//DTD SVG 20010904//EN"
 "http://www.w3.org/TR/2001/REC-SVG-20010904/DTD/svg10.dtd">
<svg version="1.0" xmlns="http://www.w3.org/2000/svg"
 width="500.000000pt" height="500.000000pt" viewBox="0 0 500.000000 500.000000"
 preserveAspectRatio="xMidYMid meet">

<g transform="translate(0.000000,500.000000) scale(0.100000,-0.100000)"
fill="#000000" stroke="none">
<path d="M1900 4658 c-74 -22 -136 -41 -138 -43 -3 -3 108 -387 113 -393 2 -2
21 2 44 9 46 14 49 23 25 92 -9 26 -14 53 -11 61 3 7 43 23 90 35 l84 23 -9
38 -10 38 -66 -19 c-126 -37 -119 -38 -135 17 -8 27 -14 50 -12 51 1 2 46 16
99 32 54 16 100 31 102 34 8 8 -18 67 -29 66 -7 0 -73 -19 -147 -41z"/>
<path d="M2296 4625 c-43 -29 -46 -30 -46 -10 0 16 -12 18 -57 9 l-29 -6 12
-106 c7 -59 16 -129 20 -155 l6 -48 42 3 41 3 -1 45 c-1 25 -3 72 -5 104 -2
51 0 61 20 77 13 11 31 19 42 19 25 0 29 11 22 53 -7 44 -18 45 -67 12z"/>
<path d="M2500 4628 c-144 -73 -110 -276 51 -303 61 -10 123 11 163 55 125
138 -44 334 -214 248z m140 -78 c28 -28 27 -96 -2 -127 -27 -29 -77 -30 -109
-4 -31 25 -34 98 -5 130 26 28 88 29 116 1z"/>
<path d="M2845 4608 c-2 -7 -18 -69 -35 -138 -17 -69 -33 -132 -36 -141 -3
-12 7 -18 41 -26 l45 -10 11 41 c39 155 52 176 106 176 35 0 63 -27 63 -59 0
-13 -9 -59 -21 -103 -11 -45 -17 -84 -12 -89 4 -4 24 -10 44 -14 l37 -7 26
111 c16 67 24 121 20 138 -16 67 -99 114 -169 94 -28 -7 -35 -6 -35 4 0 17 -6
21 -48 30 -23 5 -33 3 -37 -7z"/>
<path d="M3285 4529 c-13 -25 -21 -30 -40 -25 -18 5 -25 0 -35 -24 -14 -33
-14 -32 12 -46 15 -8 14 -15 -13 -77 -38 -90 -38 -135 -1 -171 30 -28 95 -52
112 -41 6 3 10 18 10 33 0 21 -7 30 -30 39 -19 7 -30 18 -30 31 0 15 43 125
56 140 1 2 16 -4 34 -13 18 -9 33 -15 35 -13 8 9 25 48 25 56 0 5 -14 15 -31
22 -23 10 -29 18 -25 32 3 10 9 27 12 37 5 16 -2 23 -31 35 -47 20 -42 21 -60
-15z"/>
<path d="M3656 4170 c-69 -82 -126 -153 -126 -157 0 -8 199 -180 228 -197 11
-7 51 28 52 46 0 4 -36 37 -80 75 -44 37 -80 70 -80 73 0 3 13 20 28 38 l28
34 74 -62 74 -62 23 28 23 29 -23 20 c-13 11 -45 38 -72 61 l-49 41 23 31 c12
18 27 32 32 32 6 0 45 -29 87 -65 l77 -64 27 26 c16 15 25 30 21 34 -46 42
-226 189 -232 189 -5 0 -65 -67 -135 -150z"/>
<path d="M3419 4261 l-17 -28 66 -39 c36 -22 69 -40 73 -42 8 -3 44 58 37 62
-21 16 -128 76 -134 76 -5 0 -16 -13 -25 -29z"/>
<path d="M1220 4198 c-11 -18 -20 -39 -20 -47 0 -11 -3 -11 -15 -1 -12 10 -20
8 -44 -12 -17 -12 -30 -27 -30 -32 -1 -10 188 -236 196 -236 4 0 21 11 40 26
l33 25 -60 71 c-67 80 -76 115 -38 155 l22 23 -20 27 c-29 38 -41 39 -64 1z"/>
<path d="M1586 4197 c-21 -16 -24 -60 -6 -82 17 -21 63 -19 83 3 47 52 -21
120 -77 79z"/>
<path d="M982 3973 c-54 -26 -85 -76 -90 -143 -4 -48 0 -66 17 -94 31 -49 78
-76 135 -76 55 0 89 16 132 62 41 43 54 69 54 107 0 28 -3 31 -34 31 -29 0
-34 -4 -40 -31 -8 -43 -57 -89 -95 -89 -17 0 -31 4 -31 9 0 5 34 47 75 94 41
48 75 88 75 91 0 3 -20 17 -43 31 -51 29 -106 32 -155 8z m98 -70 c0 -5 -23
-33 -50 -63 -41 -46 -51 -52 -60 -40 -15 22 -4 72 21 93 21 17 89 24 89 10z"/>
<path d="M3916 3885 c-66 -53 -121 -97 -123 -99 -2 -1 10 -19 25 -39 l29 -36
59 48 c100 81 137 90 173 45 38 -48 29 -65 -78 -149 -34 -26 -61 -52 -61 -56
0 -5 12 -22 28 -39 l27 -29 80 64 c44 35 88 77 97 92 39 62 9 150 -65 187 -28
13 -35 21 -28 30 8 9 3 22 -17 44 l-27 32 -119 -95z"/>
<path d="M787 3686 c-20 -8 -44 -20 -53 -27 -24 -20 -54 -85 -54 -118 0 -23
-4 -29 -15 -25 -10 4 -20 -6 -31 -30 -10 -20 -15 -38 -13 -41 7 -6 358 -205
363 -205 5 0 46 65 46 73 0 3 -26 20 -59 38 l-58 32 42 41 c32 31 44 52 50 84
18 112 -109 217 -218 178z m86 -98 c78 -41 54 -148 -33 -148 -77 0 -118 84
-68 137 24 25 66 30 101 11z"/>
<path d="M4154 3581 c-113 -52 -138 -169 -55 -253 23 -23 34 -41 29 -46 -8 -8
10 -60 27 -80 2 -2 91 41 198 94 l195 98 -19 38 c-11 21 -24 38 -29 38 -6 0
-37 -14 -70 -30 l-60 -30 6 27 c6 35 -31 109 -67 136 -39 28 -105 32 -155 8z
m127 -100 c44 -45 36 -97 -21 -126 -41 -21 -73 -19 -98 8 -33 35 -37 69 -11
101 41 52 88 59 130 17z"/>
<path d="M615 3316 c-16 -8 -42 -26 -57 -42 -75 -80 -63 -202 25 -268 43 -32
133 -29 179 6 104 80 98 240 -12 296 -50 25 -91 27 -135 8z m123 -111 c71 -83
-46 -179 -127 -104 -14 14 -21 32 -21 59 0 77 94 106 148 45z"/>
<path d="M4413 3041 c-101 -15 -185 -30 -188 -33 -7 -7 21 -189 36 -238 28
-87 100 -140 191 -140 99 1 171 54 199 148 12 40 4 149 -18 265 -6 32 12 32
-220 -2z m162 -144 c12 -112 -31 -171 -126 -171 -78 0 -117 48 -133 160 l-6
42 88 12 c48 6 92 13 97 15 6 2 24 4 42 4 31 1 31 1 38 -62z"/>
<path d="M336 2955 c-3 -11 -6 -32 -6 -46 l0 -26 213 -35 c116 -20 213 -35
214 -34 1 1 3 22 5 46 l3 44 -212 35 c-209 36 -212 36 -217 16z"/>
<path d="M504 2766 c-49 -22 -78 -71 -82 -141 -3 -50 0 -66 20 -95 13 -19 39
-45 57 -57 70 -47 177 -19 220 57 29 52 29 151 0 199 l-21 34 -26 -26 c-23
-23 -24 -29 -14 -52 21 -46 15 -93 -15 -123 l-28 -27 -3 123 -3 122 -37 0
c-20 -1 -51 -7 -68 -14z m46 -152 c0 -79 -2 -81 -42 -46 -34 28 -12 122 28
122 11 0 14 -16 14 -76z"/>
<path d="M4354 2571 c-23 -10 -51 -32 -63 -49 -42 -59 -46 -181 -8 -219 13
-13 18 -13 41 2 19 13 25 23 20 34 -18 40 -16 96 6 124 37 46 52 36 45 -30 -3
-32 -6 -85 -8 -118 l-2 -60 48 1 c54 0 89 21 125 75 20 29 23 44 20 96 -3 43
-10 71 -25 90 -46 63 -131 86 -199 54z m136 -101 c39 -39 14 -130 -36 -130
-14 0 -15 7 -10 38 3 20 6 54 6 75 0 42 11 46 40 17z"/>
<path d="M426 2373 c4 -21 11 -41 16 -44 5 -3 53 -16 108 -29 55 -13 100 -26
100 -29 0 -4 -42 -31 -92 -62 l-93 -55 3 -40 c2 -21 7 -42 10 -46 4 -4 70 33
147 81 l140 89 -3 43 c-2 24 -7 47 -10 50 -7 7 -304 79 -323 79 -6 0 -7 -15
-3 -37z"/>
<path d="M4367 2177 l-147 -20 -11 -40 c-6 -21 -8 -45 -5 -52 4 -12 237 -197
256 -203 5 -2 13 14 19 35 12 43 19 35 -92 121 -70 54 -76 62 -55 66 23 5 184
26 199 26 4 0 10 12 13 28 4 15 9 35 12 45 7 21 4 21 -189 -6z"/>
<path d="M734 2058 c-15 -28 -15 -32 0 -40 22 -12 46 -61 46 -93 0 -29 -16
-65 -29 -65 -5 0 -26 50 -47 110 -22 61 -43 110 -48 110 -26 0 -95 -53 -110
-84 -46 -97 17 -226 118 -243 89 -14 177 44 191 126 10 61 -17 142 -60 180
-20 17 -38 31 -40 31 -3 0 -12 -14 -21 -32z m-64 -154 c12 -36 20 -67 17 -70
-2 -2 -16 0 -30 5 -30 12 -57 47 -57 76 0 25 28 67 40 60 5 -3 18 -35 30 -71z"/>
<path d="M4165 1882 c-42 -27 -72 -61 -90 -104 -16 -40 -20 -95 -7 -116 12
-18 73 5 71 27 -6 59 33 121 77 121 13 0 24 -2 24 -5 0 -3 -23 -51 -51 -107
-55 -110 -55 -109 14 -128 122 -34 235 110 183 234 -33 79 -153 121 -221 78z
m161 -166 c-8 -36 -23 -55 -55 -67 -42 -16 -44 4 -9 75 l33 67 18 -23 c13 -15
17 -31 13 -52z"/>
<path d="M750 1710 c-56 -27 -77 -46 -101 -92 -23 -45 -25 -125 -4 -174 30
-73 119 -204 135 -198 10 4 317 193 337 209 2 1 -28 49 -66 108 -81 124 -124
158 -204 164 -38 3 -64 -2 -97 -17z m175 -110 c17 -17 41 -48 53 -69 l21 -38
-106 -67 c-121 -76 -113 -77 -159 19 -30 62 -30 83 -1 126 49 74 133 86 192
29z"/>
<path d="M3970 1585 c-13 -20 -19 -40 -14 -44 19 -18 344 -231 351 -231 9 0
57 70 51 75 -16 13 -342 227 -352 231 -8 3 -23 -10 -36 -31z"/>
<path d="M3875 1436 c-43 -19 -103 -89 -111 -130 -19 -104 54 -196 156 -196
131 0 226 158 157 261 -48 72 -128 97 -202 65z m117 -103 c43 -39 27 -113 -30
-134 -37 -14 -89 11 -106 53 -37 87 63 147 136 81z"/>
<path d="M3573 1308 c-18 -13 -33 -26 -33 -29 0 -3 18 -30 41 -60 l40 -54 -34
-6 c-78 -13 -133 -86 -124 -166 9 -83 84 -153 162 -153 54 0 121 41 136 85 10
26 16 32 26 24 16 -14 77 27 69 46 -6 17 -240 334 -246 335 -3 0 -20 -10 -37
-22z m96 -222 c28 -15 51 -53 51 -85 0 -10 -9 -30 -21 -45 -31 -39 -88 -37
-123 5 -34 40 -34 83 0 114 31 29 53 31 93 11z"/>
<path d="M1214 1259 c-43 -12 -102 -75 -115 -123 -21 -78 36 -174 111 -190 36
-7 37 -5 -27 -83 l-32 -39 36 -28 c29 -24 37 -26 48 -15 7 8 70 84 140 169
l127 155 -33 27 c-25 21 -36 25 -46 17 -10 -9 -13 -8 -13 5 0 27 -69 95 -108
106 -42 11 -46 11 -88 -1z m110 -100 c57 -45 18 -149 -57 -149 -82 0 -111 86
-49 141 38 34 70 37 106 8z"/>
<path d="M1537 1043 c-13 -3 -15 -11 -11 -31 10 -40 12 -42 48 -42 52 0 120
-69 101 -101 -4 -5 -53 16 -110 47 l-104 55 -15 -30 c-19 -35 -21 -103 -5
-134 33 -64 88 -98 159 -99 146 -1 216 180 108 278 -46 43 -127 70 -171 57z
m42 -195 c31 -17 58 -33 60 -34 2 -2 -2 -10 -9 -19 -32 -39 -120 2 -120 56 0
16 3 29 6 29 4 0 32 -14 63 -32z"/>
<path d="M3278 979 c-49 -11 -102 -47 -122 -80 -21 -35 -21 -35 14 -49 28 -11
32 -10 50 13 29 36 83 52 121 37 16 -7 29 -15 29 -19 0 -3 -44 -26 -98 -50
-53 -25 -101 -48 -107 -53 -15 -13 24 -76 62 -99 74 -46 197 -8 239 73 21 41
15 129 -13 166 -40 53 -108 77 -175 61z m108 -214 c-19 -29 -59 -41 -94 -29
-43 15 -35 30 35 61 65 29 68 30 71 11 2 -10 -4 -30 -12 -43z"/>
<path d="M1816 704 c-60 -102 -107 -187 -104 -189 2 -2 22 -7 43 -10 l40 -6
75 125 c41 69 76 123 78 121 3 -2 11 -68 18 -146 8 -78 15 -143 17 -145 1 -2
21 -7 43 -12 l41 -9 79 131 79 131 12 -125 c6 -69 12 -137 12 -151 1 -23 7
-28 47 -38 26 -7 48 -11 50 -9 5 6 -38 423 -44 430 -4 3 -28 9 -53 13 l-45 7
-75 -124 -74 -123 -6 60 c-4 33 -10 97 -14 143 -7 90 -8 91 -80 105 -30 5 -31
4 -139 -179z"/>
<path d="M3012 877 c-37 -12 -37 -7 -6 -119 25 -91 12 -125 -58 -150 -8 -3 9
-78 18 -78 11 0 50 23 70 42 18 16 22 16 27 5 4 -12 13 -13 46 -4 23 6 40 16
38 22 -2 5 -21 74 -43 153 -21 78 -43 142 -49 141 -5 -1 -25 -6 -43 -12z"/>
<path d="M2617 792 c-46 -50 13 -114 74 -82 22 12 27 68 7 88 -18 18 -63 14
-81 -6z"/>
</g>
</svg>
